#N canvas 109 22 1134 651 10;
#X obj 46 329 noter;
#X obj 63 17 pack 0 0 0;
#X obj 133 243 route 1 2 3 4 5 6;
#X obj 741 388 dac~;
#X obj 190 376 *~ 1;
#X floatatom 709 124 5 0 0 0 - - -;
#X obj 708 85 * 100;
#X obj 668 152 s ctl;
#X obj 672 123 + 40;
#X obj 65 -118 notein;
#X msg 63 -41 \$1 64;
#X obj 65 -90 pack f f;
#X obj 63 -65 stripnote;
#X obj 63 -9 poly 6 1;
#X text 810 367 how can I send out to long decays and let them live
without being cut off by short notes?;
#X floatatom 725 278 5 0 0 0 - - -;
#X obj 723 301 sig~;
#X obj 708 326 vcf~ 0.9;
#X floatatom 772 297 5 0 0 0 - - -;
#X obj 776 -26 ctlin;
#X obj 776 2 pack;
#X msg 776 26 \$2 \$1;
#X obj 776 55 route 0 74 71;
#X obj 801 95 * 10;
#X text 777 416 decays over a certain length get sent to another array
of routing?;
#X text 664 63 decay control;
#X text 844 113 filter control;
#X text 66 243 drone bay;
#X text 397 238 short bay;
#X obj 477 319 *~ 1;
#X text 395 248 comment;
#X obj 462 248 route 1 2 3 4;
#X text 323 -23 can I make it so it knocks the note with the shortest
decay first?;
#X obj 326 186 *~;
#X obj 626 199 / 127;
#X obj 442 129 vd~ del;
#X floatatom 429 31 5 0 0 0 - - -;
#X obj 503 117 *~ 0.99;
#X floatatom 565 82 5 0 1 0 - - -;
#X obj 511 152 delwrite~ del 2000;
#X obj 960 232 poly;
#X obj 92 329 noter;
#X obj 139 329 noter;
#X obj 188 330 noter;
#X obj 241 329 noter;
#X obj 290 330 noter;
#X obj 417 283 noter;
#X obj 463 283 noter;
#X obj 510 283 noter;
#X obj 559 284 noter;
#X obj 494 76 lop~ 0.5;
#X connect 0 0 4 0;
#X connect 1 0 2 0;
#X connect 2 0 0 0;
#X connect 2 1 41 0;
#X connect 2 2 42 0;
#X connect 2 3 43 0;
#X connect 2 4 44 0;
#X connect 2 5 45 0;
#X connect 4 0 3 0;
#X connect 4 0 33 0;
#X connect 4 0 3 1;
#X connect 4 0 39 0;
#X connect 6 0 5 0;
#X connect 6 0 8 0;
#X connect 8 0 7 0;
#X connect 9 0 11 0;
#X connect 9 1 11 1;
#X connect 10 0 13 0;
#X connect 11 0 12 0;
#X connect 12 0 10 0;
#X connect 13 0 1 0;
#X connect 13 1 1 1;
#X connect 13 2 1 2;
#X connect 15 0 16 0;
#X connect 16 0 17 1;
#X connect 17 1 3 1;
#X connect 17 1 3 0;
#X connect 18 0 17 2;
#X connect 19 0 20 0;
#X connect 19 1 20 1;
#X connect 20 0 21 0;
#X connect 21 0 22 0;
#X connect 22 0 6 0;
#X connect 22 1 23 0;
#X connect 22 1 34 0;
#X connect 29 0 17 0;
#X connect 31 0 46 0;
#X connect 31 1 47 0;
#X connect 31 2 48 0;
#X connect 31 3 49 0;
#X connect 34 0 33 1;
#X connect 35 0 3 1;
#X connect 35 0 3 0;
#X connect 35 0 37 0;
#X connect 36 0 50 0;
#X connect 37 0 39 0;
#X connect 38 0 37 1;
#X connect 41 0 4 0;
#X connect 42 0 4 0;
#X connect 43 0 4 0;
#X connect 44 0 4 0;
#X connect 45 0 4 0;
#X connect 46 0 29 0;
#X connect 47 0 29 0;
#X connect 48 0 29 0;
#X connect 49 0 29 0;
#X connect 50 0 35 0;
