#N canvas 175 108 782 546 10;
#X msg 193 74 0.9;
#X obj 175 107 mgEnvlMtAr 5 1600 10;
#X floatatom 248 60 5 0 0 0 - - -;
#X obj 62 35 inlet;
#X obj 255 25 inlet;
#X text 62 9 sets freq;
#X text 256 4 sets decay;
#X obj 130 377 outlet~;
#X obj 73 82 mtof;
#X obj 325 50 r ctl;
#X obj 126 291 *~ 0.2;
#X obj 49 202 osc~;
#X obj 87 210 osc~;
#X obj 98 180 *~ 2.02;
#X obj 84 256 *~;
#X connect 0 0 1 0;
#X connect 1 0 14 1;
#X connect 2 0 1 2;
#X connect 3 0 8 0;
#X connect 3 0 0 0;
#X connect 4 0 1 2;
#X connect 8 0 11 0;
#X connect 8 0 13 0;
#X connect 9 0 1 2;
#X connect 10 0 7 0;
#X connect 11 0 14 0;
#X connect 12 0 14 0;
#X connect 13 0 12 0;
#X connect 14 0 10 0;
